<svg xmlns="http://www.w3.org/2000/svg" width="74" height="72"><g fill="none" fill-rule="evenodd"><path d="M6.497 36c0-16.332 13.155-29.571 29.406-29.571h.964c16.24 0 29.406 13.236 29.406 29.571 0 16.332-13.155 29.571-29.406 29.571h-.964C19.663 65.571 6.497 52.335 6.497 36z" opacity=".9"/><path fill="#000" d="M37.282 0c19.938 0 36.1 16.113 36.1 36 0 19.882-16.15 36-36.1 36H36.1C16.163 72 0 55.887 0 36 0 16.118 16.15 0 36.1 0h1.182zM32.69 18.172h-1.153c-.768 0-1.565 0-2.356.002l-.86.001h-.322l-1.412.004-1.537 12.693 3.16.363 1.207-9.965 1.46-.001h2.19c.62 0 1.173.002 1.648.003 3.345.013 6.004 1.81 7.375 4.625a28.428 28.428 0 00-2.604-.123 606.383 606.383 0 00-3.782-.002l-.418.002h-.149l-1.416.008-1.025 9.002a20.3 20.3 0 00-.743-.013c-2.239 0-4.286.35-5.907 1.11-2.083.974-3.401 2.601-3.62 4.801-.183 1.83.597 3.548 2.237 4.744 1.543 1.126 3.768 1.749 6.613 1.833l-.708 6.224 1.77.006h.393l.413.002c1.525.003 3.23.003 4.953-.002 9.007-.025 14.664-4.372 15.3-13.965.355-5.37-1.213-9.132-4.432-11.363a11.917 11.917 0 00-3.225-1.555c-1.429-4.945-5.553-8.41-11.013-8.43-.67-.003-1.492-.004-2.434-.004zm10.575 23.57l.496.3.333.203.336.203c1.838 1.114 3.167 1.869 4.463 2.491-1.839 3.797-5.488 5.439-10.804 5.453-1.36.004-2.71.005-3.967.003l.381-3.35c.467-.068.877-.15 1.23-.254 2.295-.537 4.264-1.528 5.915-3.121a12.189 12.189 0 001.617-1.928zm-11.31-3.874c3.083 0 5.438.657 8.56 2.304-.34.482-.709.914-1.108 1.299-1.598 1.542-3.659 2.34-6.294 2.62-.211.02-.426.036-.642.05-.154.011-.297.02-.425.026l-.123.005c-2.52-.004-4.309-.464-5.35-1.223-.752-.549-1.055-1.215-.98-1.967.201-2.009 2.563-3.114 6.361-3.114zM46.28 30.18a7.5 7.5 0 01.838.504c2.259 1.565 3.39 4.281 3.102 8.641a19.49 19.49 0 01-.345 2.628c-1.067-.535-2.218-1.197-3.766-2.134l-.333-.202-.333-.202-.67-.405-.054-.033c.825-2.054 1.34-4.51 1.531-7.393.032-.475.042-.943.03-1.404zm-9.71-1.313c.878 0 1.857 0 2.901.004 1.298.005 2.48.092 3.55.274.086.716.105 1.465.054 2.24-.157 2.37-.545 4.359-1.142 6.005a25.55 25.55 0 00-2.858-1.3 20.235 20.235 0 00-3.22-.938z"/></g></svg>